# xmcd
#
# Track frame offsets:
#	150
#	13695
#	32693
#	49228
#	61980
#	76007
#	92168
#	105410
#	117067
#	127005
#	136724
#	150724
#
# Disc length: 2161 seconds
#
# Revision: 8
# Processed by: cddbd v1.5.1PL0 Copyright (c) Steve Scherf et al.
# Submitted via: EasyCDDAExtractor 8.0.1.1
#
DISCID=8d086f0c
DTITLE=The Rolling Stones - The Rolling Stones, Now!
DYEAR=1965
DGENRE=Rock/Blues
TTITLE0=Everybody Needs Somebody To Love
TTITLE1=Down Home Girl
TTITLE2=You Can't Catch Me
TTITLE3=Heart Of Stone
TTITLE4=What A Shame
TTITLE5=Mona (I Need You Baby)
TTITLE6=Down The Road Apiece
TTITLE7=Off The Hook
TTITLE8=Pain In My Heart
TTITLE9=Oh Baby (We Got A Good Thing Goin')
TTITLE10=Little Red Rooster
TTITLE11=Surprise, Surprise
EXTD=65/03 YEAR: 1965
EXTT0=
EXTT1=
EXTT2=
EXTT3=
EXTT4=
EXTT5=
EXTT6=
EXTT7=
EXTT8=
EXTT9=
EXTT10=
EXTT11=
PLAYORDER=
